<svg version="1.1" id="Layer_1" xmlns="http://www.w3.org/2000/svg" xmlns:xlink="http://www.w3.org/1999/xlink" x="0px" y="0px"
	 width="100%" viewBox="0 0 1080 240" xml:space="preserve">
<path fill="none" opacity="1.000000" stroke="none" 
	d="
M811.000000,241.000000 
	C540.666687,241.000000 270.833344,241.000000 1.000000,241.000000 
	C1.000000,161.000000 1.000000,81.000000 1.000000,1.000000 
	C361.000000,1.000000 721.000000,1.000000 1081.000000,1.000000 
	C1081.000000,81.000000 1081.000000,161.000000 1081.000000,241.000000 
	C991.166687,241.000000 901.333313,241.000000 811.000000,241.000000 
M518.920654,135.821777 
	C518.920654,135.821777 518.900330,135.568588 519.239075,135.608841 
	C519.239075,135.608841 519.473694,135.361557 519.473694,135.361557 
	C519.473694,135.361557 519.364136,135.038773 519.810669,134.534058 
	C520.194763,133.994553 520.578857,133.455063 521.602478,132.739761 
	C522.029480,131.810898 522.456482,130.882019 523.496887,129.672806 
	C523.956543,128.438538 524.416199,127.204269 525.556885,125.641129 
	C526.245056,122.411461 526.933167,119.181793 527.777893,115.118698 
	C527.727600,113.426842 527.677307,111.734985 527.830078,109.318947 
	C526.877930,107.242157 525.925781,105.165367 524.841309,102.550560 
	C524.806702,102.369148 524.772156,102.187729 524.899292,101.487015 
	C524.598694,101.329369 524.298157,101.171715 523.801514,100.543144 
	C523.519348,100.366493 523.237244,100.189835 522.893860,99.483879 
	C522.592773,99.333855 522.291748,99.183823 522.002136,98.996353 
	C522.002136,98.996353 521.967834,99.015656 521.761047,98.424492 
	C520.815918,98.062202 519.870728,97.699913 518.024780,97.138809 
	C512.166382,97.161873 506.027161,95.645912 500.861725,99.811058 
	C491.790955,107.125244 488.025299,117.086128 485.913177,128.249542 
	C484.506165,135.686127 482.062469,143.060806 479.053070,150.017792 
	C476.617706,155.647766 472.716095,155.366318 469.798981,149.187469 
	C469.727661,144.451477 469.656311,139.715500 469.771881,134.061935 
	C469.723907,123.696327 469.675964,113.330727 469.767639,102.516373 
	C469.590576,102.182617 469.322693,102.075150 468.700684,101.472343 
	C464.217102,98.121674 459.233551,98.720230 453.975830,99.366035 
	C454.694305,102.186623 455.809601,104.683807 455.885742,107.212273 
	C456.126465,115.204536 456.946289,123.364510 455.689911,131.161133 
	C454.581970,138.036560 451.370758,144.699982 448.246216,151.042114 
	C447.368347,152.823990 443.409027,154.081406 441.071899,153.806229 
	C439.476318,153.618362 438.203705,150.380692 436.868469,148.450043 
	C436.383698,147.749100 436.136200,146.884048 435.813354,145.178940 
	C435.736755,142.447708 435.660156,139.716492 435.775635,136.161224 
	C435.784271,134.750900 435.792877,133.340591 436.556824,131.690399 
	C436.574585,130.122894 436.592346,128.555389 436.787720,126.238876 
	C436.795502,125.469231 436.803284,124.699593 437.492432,123.731133 
	C437.530640,122.817253 437.568878,121.903366 437.785278,120.317017 
	C437.789886,119.853371 437.794525,119.389725 438.419830,118.772522 
	C438.485748,118.179298 438.551636,117.586075 438.794006,116.327507 
	C438.822601,115.869576 438.851196,115.411644 439.550903,114.874519 
	C439.570404,114.246361 439.589905,113.618210 439.786987,112.308701 
	C439.771637,111.840309 439.756256,111.371910 440.439575,110.646004 
	C441.169220,108.095573 441.898834,105.545143 442.795135,102.203796 
	C442.160950,101.199310 441.744720,99.616539 440.857971,99.282372 
	C434.131592,96.747597 428.792664,99.606079 427.110992,106.430275 
	C426.721161,108.012115 426.441620,109.621384 426.042206,111.200562 
	C423.310059,122.003769 420.720367,132.847427 417.712982,143.573822 
	C416.856415,146.628830 415.000671,149.503540 413.135345,152.128540 
	C412.349121,153.234940 410.339539,153.955688 408.909943,153.919098 
	C408.184937,153.900528 407.156403,151.886185 406.890533,150.640610 
	C406.317871,147.957855 405.889374,145.191376 405.861877,142.454514 
	C405.752991,131.631287 406.227875,120.786369 405.698486,109.988106 
	C405.259125,101.026031 400.996094,96.768539 392.474640,96.045525 
	C383.560333,95.289185 378.943634,101.322525 373.969452,106.072746 
	C373.968231,90.650688 373.958130,75.228622 373.972382,59.806583 
	C373.975800,56.121201 373.232452,52.963291 369.000000,51.999847 
	C369.000000,51.999847 368.994507,52.002964 368.899658,51.466255 
	C368.588470,51.406368 368.277313,51.346481 367.059967,51.146751 
	C363.784576,51.146751 360.509216,51.146751 358.077423,51.146751 
	C358.077423,62.065243 358.077423,72.476166 358.077423,82.887085 
	C358.077423,106.685593 358.048706,130.484192 358.118622,154.282486 
	C358.126221,156.871368 358.504913,159.502075 359.061371,162.036575 
	C359.945740,166.064728 363.176575,167.349518 369.496338,166.901886 
	C373.862946,166.592606 373.739807,163.466583 373.788574,160.536774 
	C373.896637,154.048126 374.159119,147.534973 373.746643,141.070847 
	C373.060486,130.318024 377.240662,121.359810 383.353241,113.080704 
	C384.773773,111.156631 387.116058,109.913086 390.018036,107.558044 
	C390.465302,112.204865 390.986298,115.270912 391.015289,118.341599 
	C391.118988,129.324554 391.031616,140.309143 391.062866,151.292984 
	C391.093384,162.018707 398.899078,167.490311 407.104889,167.103607 
	C414.929962,166.734863 419.423248,162.021423 424.184509,157.591629 
	C427.452271,160.405685 430.720032,163.219757 434.457153,166.743896 
	C439.434723,166.896011 444.560242,168.073959 449.481537,164.780060 
	C449.815125,164.606659 449.942963,164.336044 450.496674,163.765640 
	C451.645630,162.453522 452.794556,161.141418 454.580872,159.700500 
	C455.009583,158.780930 455.438293,157.861359 455.945618,156.948700 
	C455.945618,156.948700 455.946167,156.869766 456.648529,157.116287 
	C458.006073,162.438507 461.704193,165.289078 467.555176,166.904449 
	C473.234406,167.386780 478.565826,166.602051 483.497070,162.790192 
	C483.828369,162.607803 483.955475,162.331497 483.959564,161.970139 
	C483.959564,161.970139 483.964325,161.888611 484.488434,161.862030 
	C484.617523,161.563492 484.746613,161.264954 484.959778,160.956985 
	C484.959778,160.956985 484.945435,160.873611 485.583954,160.730148 
	C486.010406,159.800369 486.436859,158.870605 486.942047,157.944290 
	C486.942047,157.944290 486.938690,157.865555 487.556183,157.691620 
	C487.990387,156.774246 488.424591,155.856857 488.939209,154.943161 
	C488.939209,154.943161 488.935822,154.862686 489.613647,154.663239 
	C490.779510,155.193008 492.252106,155.435791 493.060669,156.299881 
	C497.731049,161.291077 502.930267,165.252899 510.463165,166.751617 
	C512.982178,166.761322 515.501160,166.771011 518.842468,166.913589 
	C520.228516,166.863419 521.614563,166.813248 523.521362,166.897079 
	C523.722046,166.613800 523.922729,166.330505 524.897522,165.960220 
	C528.921631,163.942368 532.945740,161.924515 537.657898,159.833298 
	C539.322266,158.652084 540.986694,157.470871 542.690918,156.261398 
	C544.733337,162.451538 547.350220,164.919113 553.466736,166.736267 
	C563.031860,167.947952 570.194763,164.337555 575.695557,156.187866 
	C576.806824,158.093140 577.918152,159.998428 579.239319,162.469376 
	C579.848389,162.972275 580.457458,163.475189 581.173096,164.471573 
	C581.454956,164.631348 581.736877,164.791107 581.993530,164.994705 
	C581.993530,164.994705 582.042542,164.982239 582.109802,165.483444 
	C582.395386,165.558655 582.680969,165.633865 583.650146,165.829712 
	C584.109863,165.882812 584.569580,165.935913 585.530640,166.647110 
	C593.509155,167.998016 600.220703,166.050735 605.632629,158.989777 
	C606.283264,159.341232 606.933838,159.692688 607.301331,160.638138 
	C607.457458,165.247772 607.613647,169.857407 607.410156,175.179306 
	C607.424561,183.111343 607.438965,191.043396 607.261475,199.794525 
	C607.304993,201.467224 607.348450,203.139908 607.181946,205.589096 
	C607.522278,209.363632 607.358398,213.272903 608.322510,216.880737 
	C609.724365,222.126877 611.777588,227.754333 617.315613,229.710846 
	C626.084534,232.808823 634.122192,229.070877 638.521667,220.847916 
	C644.016541,210.577530 646.525085,199.632095 645.982727,187.535980 
	C645.982727,187.535980 646.034973,187.076736 646.457397,186.860214 
	C646.781982,186.654297 646.864929,186.376266 646.863770,185.193924 
	C646.810730,183.786194 646.757629,182.378448 646.786865,180.493835 
	C646.620117,180.194550 646.371521,179.999588 646.005676,178.994019 
	C645.233643,172.327530 644.461609,165.661041 643.770752,158.226379 
	C640.544006,150.434341 637.317322,142.642303 633.967773,134.152252 
	C630.971863,129.768951 627.975952,125.385635 624.714478,120.361259 
	C623.738037,118.550072 622.761597,116.738892 622.732056,114.714691 
	C629.941711,115.490891 637.499512,113.369537 644.356384,117.338036 
	C644.787537,117.587563 646.378601,116.934456 646.468079,116.502167 
	C647.346069,112.260620 648.923462,107.880211 648.480286,103.733963 
	C648.089294,100.074844 643.823486,101.049988 640.946350,100.983665 
	C639.296875,100.945663 637.643127,101.093292 635.079529,101.039162 
	C631.183044,101.299454 627.288513,101.636292 623.388000,101.732918 
	C622.838013,101.746536 622.258972,100.587212 621.840332,99.048203 
	C621.783875,87.363411 621.727417,75.678619 621.839417,63.096283 
	C621.852783,61.280621 621.908752,59.464108 621.872314,57.649445 
	C621.689453,48.539700 614.223694,44.675453 606.361145,48.374847 
	C606.632751,49.883057 606.904297,51.391270 607.188049,53.752895 
	C607.252625,55.170197 607.317261,56.587498 607.181763,58.918846 
	C607.122253,73.610535 607.062744,88.302231 606.239441,103.043800 
	C605.485657,103.151184 604.731934,103.258575 603.535461,103.291344 
	C603.233276,103.456001 603.106079,103.708763 603.041138,104.042809 
	C603.041138,104.042809 603.034729,104.155693 602.341858,104.394897 
	C600.368530,107.438408 600.340332,110.373756 603.362122,112.662552 
	C606.614258,115.125877 607.234436,118.234039 607.267273,122.148766 
	C607.354919,132.580933 601.913635,141.073486 598.126587,150.147369 
	C596.863281,153.174164 594.403931,154.693649 590.655640,153.383728 
	C590.420288,152.958466 590.000305,152.543015 589.977051,152.106476 
	C589.567566,144.406250 589.206543,136.703461 588.979004,128.073547 
	C588.988892,120.908455 588.872192,113.740189 589.051941,106.579361 
	C589.178223,101.545380 586.802979,98.955841 581.198059,98.051308 
	C577.902161,97.990929 574.170044,97.521400 574.263611,102.457497 
	C574.324097,105.649712 574.993225,108.830399 575.211304,112.935051 
	C575.205078,118.982529 575.198853,125.030006 574.538269,131.193817 
	C573.484497,132.465881 572.430725,133.737930 571.184021,135.580307 
	C571.139038,135.775879 571.093994,135.971466 570.495850,136.314697 
	C570.453247,136.854218 570.410583,137.393723 570.216309,138.627701 
	C570.183960,139.100449 570.151611,139.573196 569.438110,140.344666 
	C568.013977,144.250839 566.589844,148.157028 565.061096,152.059814 
	C565.061096,152.059814 565.065002,152.164429 564.330933,152.299454 
	C562.190552,152.969025 560.050171,153.638596 557.530029,153.844681 
	C557.233337,153.578323 556.936646,153.311951 556.703125,152.597961 
	C556.555542,152.280472 556.307861,152.142746 555.849426,151.581421 
	C555.797485,151.383636 555.745605,151.185852 555.828979,150.498672 
	C555.560181,150.311249 555.291382,150.123825 554.956238,149.012497 
	C554.883240,144.005600 554.810242,138.998703 554.896362,133.068451 
	C554.841309,127.041283 554.786316,121.014107 554.887207,114.063278 
	C554.887207,108.035034 554.887207,102.006783 554.887207,95.612625 
	C560.747253,95.612625 565.844543,95.612625 571.864258,95.821556 
	C574.989380,95.835350 578.153320,95.537437 581.232239,95.921669 
	C590.303833,97.053764 590.831543,91.878784 591.008789,85.191963 
	C591.055176,83.441010 591.588196,81.702957 592.560425,79.690781 
	C593.374084,77.793030 594.187805,75.895287 595.398132,73.804024 
	C595.698730,73.603386 595.763550,73.343910 595.812866,72.273018 
	C595.441895,70.514252 595.070923,68.755478 594.783691,66.518143 
	C594.617920,66.202370 594.357239,66.030563 593.716309,65.368561 
	C590.521606,60.791058 585.880493,60.627247 580.458679,61.046898 
	C580.278931,61.352283 580.099243,61.657665 579.396729,62.182854 
	C579.246399,62.297459 579.096008,62.412060 578.614197,62.485085 
	C578.374084,62.613300 578.303955,62.804073 578.148376,63.078732 
	C578.148376,63.078732 578.066223,63.321526 577.622009,63.322666 
	C577.316467,63.483154 577.194824,63.733162 577.104431,64.054420 
	C577.104431,64.054420 577.094116,64.207878 576.435242,64.361206 
	C575.743896,65.919388 575.052612,67.477570 574.202148,69.811790 
	C574.255737,70.863083 574.309326,71.914375 574.162354,73.725685 
	C573.992310,78.343529 576.681702,80.948959 580.739014,82.502464 
	C578.642029,83.045845 576.816223,83.518951 574.054993,84.003304 
	C567.714966,83.997162 561.375000,83.991013 554.930237,83.054558 
	C554.927795,73.901360 554.977295,64.747749 554.904480,55.595116 
	C554.857056,49.639645 547.729614,45.019470 542.273010,47.543297 
	C541.239929,48.021118 540.328552,49.964493 540.310364,51.245110 
	C540.156372,62.105003 540.222412,72.968018 540.222412,83.064835 
	C536.262634,83.064835 531.995544,83.131599 527.731812,83.040924 
	C524.977661,82.982346 523.577026,84.109688 524.019165,86.899803 
	C524.295654,88.645119 524.890564,90.339989 525.240967,92.493820 
	C525.405334,92.796684 525.657715,92.921494 526.172119,93.403000 
	C526.479187,93.598557 526.786194,93.794113 527.278137,94.599121 
	C528.181946,94.935127 529.085693,95.271126 530.900574,95.784302 
	C534.153992,95.784302 537.407349,95.784302 540.787903,95.784302 
	C541.003601,97.458603 541.166565,98.723610 541.148438,100.911758 
	C541.139404,110.288963 541.130432,119.666161 540.531677,129.176926 
	C540.071167,129.804672 539.610596,130.432404 539.049377,131.051865 
	C539.049377,131.051865 539.047180,131.152817 538.574280,131.175247 
	C538.196045,131.348877 538.118164,131.611588 538.156494,132.636093 
	C538.098694,133.097366 538.040894,133.558624 537.547546,134.150818 
	C537.197754,134.336411 537.133972,134.593094 537.185303,135.679520 
	C537.131836,136.455276 537.078369,137.231018 536.497192,138.240875 
	C535.674805,140.535599 534.852478,142.830307 533.603455,145.271866 
	C533.316467,145.462967 533.210571,145.726776 533.076355,146.053406 
	C533.076355,146.053406 533.069092,146.262802 532.645996,146.259460 
	C532.316040,146.410049 532.236084,146.645523 532.070740,147.553558 
	C531.057007,148.729614 530.043213,149.905685 528.416748,151.183868 
	C527.642761,151.800842 526.868774,152.417831 525.553589,153.169388 
	C525.377625,153.229446 525.201721,153.289505 524.199402,153.212906 
	C515.702515,155.937653 510.523163,154.122116 504.059662,145.352493 
	C506.702087,144.159729 509.344513,142.966965 512.523743,141.927063 
	C512.685486,141.618530 512.847229,141.309982 513.588135,140.710571 
	C514.394531,140.001511 515.200928,139.292450 516.430908,138.663666 
	C516.740417,138.486633 516.817078,138.237778 516.909058,137.780746 
	C516.909058,137.780746 516.906311,137.497589 517.265259,137.518997 
	C517.526428,137.385529 517.605530,137.181473 517.780640,136.920914 
	C517.780640,136.920914 517.920288,136.679901 518.388855,136.723465 
	C518.735718,136.549591 518.835449,136.283157 518.920654,135.821777 
M658.253174,160.409271 
	C660.073914,161.866852 661.894653,163.324432 664.131287,165.356781 
	C667.998169,165.870300 672.259216,167.646667 675.636658,166.592270 
	C680.340454,165.123749 684.382874,161.536697 688.773499,158.816010 
	C691.249023,165.555939 697.204895,167.198456 704.586670,167.049286 
	C712.301086,166.893402 716.055237,160.715668 721.120544,156.557922 
	C729.114075,167.875458 744.805542,170.480804 753.882690,162.591843 
	C761.672241,155.821976 766.924500,148.013092 764.950134,137.118851 
	C764.633484,135.371796 763.674255,132.731705 762.455017,132.367126 
	C759.889221,131.599915 757.057251,131.721085 755.906799,135.515472 
	C754.779785,139.232376 752.955444,142.753204 751.276428,146.283615 
	C749.101807,150.856049 745.668457,154.188919 740.377747,153.985245 
	C736.799927,153.847534 734.547363,147.967697 733.898071,141.857712 
	C733.109070,134.433884 737.764160,129.068100 740.070740,122.863785 
	C747.257019,103.533958 753.949951,84.254448 751.067200,63.023354 
	C749.934814,54.683907 745.788757,48.156734 739.439209,47.087563 
	C731.141296,45.690315 724.171692,49.524513 721.029785,57.726055 
	C719.885498,60.712978 719.268005,64.084747 719.242859,67.287476 
	C719.085754,87.279671 719.182556,107.273766 719.130127,127.267059 
	C719.126038,128.828201 718.910889,130.513916 718.292664,131.921631 
	C717.101318,134.634232 715.408386,137.124680 714.186768,139.826324 
	C712.712585,143.086502 711.867737,146.681824 710.060425,149.721802 
	C708.966858,151.561234 706.565002,152.622894 704.750977,154.034058 
	C703.817505,151.930878 702.113892,149.841553 702.075806,147.722275 
	C701.830444,134.064484 702.001770,120.399864 701.926941,106.738091 
	C701.888062,99.633659 693.516174,94.814934 687.572815,98.472443 
	C686.808167,98.942947 686.240234,100.395462 686.261536,101.378372 
	C686.479797,111.477814 687.032104,121.573097 687.090942,131.671875 
	C687.130981,138.558685 684.620422,144.825974 680.468811,150.266846 
	C676.211548,155.846237 673.023010,155.667969 668.865662,149.200012 
	C668.557739,147.459732 667.958313,145.713318 667.994751,143.980270 
	C668.120728,137.977814 668.467896,131.980026 668.898682,125.166542 
	C670.656311,118.247963 672.243896,111.279366 674.256226,104.435661 
	C675.050293,101.734924 674.836121,99.455460 672.097290,99.243454 
	C668.785767,98.987122 665.380798,99.939186 661.306946,100.466240 
	C657.255737,111.288696 654.450439,122.367485 654.241333,134.702194 
	C654.259399,135.172379 654.277466,135.642563 653.605713,136.466156 
	C653.838684,138.640381 654.071655,140.814590 653.768921,143.062790 
	C653.754761,143.381882 653.740601,143.700989 653.312134,144.669312 
	C654.011597,148.130692 654.710999,151.592087 655.330078,155.459564 
	C655.488159,155.743301 655.724670,155.845490 656.157043,156.487366 
	C656.580078,157.344360 657.003174,158.201355 657.354492,159.451248 
	C657.509338,159.725616 657.738525,159.820221 658.253174,160.409271 
z"/>
<path fill="#3280C7" opacity="1.000000" stroke="none" 
	d="
M668.970398,150.042709 
	C673.023010,155.667969 676.211548,155.846237 680.468811,150.266846 
	C684.620422,144.825974 687.130981,138.558685 687.090942,131.671875 
	C687.032104,121.573097 686.479797,111.477814 686.261536,101.378372 
	C686.240234,100.395462 686.808167,98.942947 687.572815,98.472443 
	C693.516174,94.814934 701.888062,99.633659 701.926941,106.738091 
	C702.001770,120.399864 701.830444,134.064484 702.075806,147.722275 
	C702.113892,149.841553 703.817505,151.930878 704.750977,154.034027 
	C706.565002,152.622894 708.966858,151.561234 710.060425,149.721802 
	C711.867737,146.681824 712.712585,143.086502 714.186768,139.826324 
	C715.408386,137.124680 717.101318,134.634232 718.292664,131.921631 
	C718.910889,130.513916 719.126038,128.828201 719.130127,127.267059 
	C719.182556,107.273766 719.085754,87.279671 719.242859,67.287476 
	C719.268005,64.084747 719.885498,60.712978 721.029785,57.726055 
	C724.171692,49.524513 731.141296,45.690315 739.439209,47.087563 
	C745.788757,48.156734 749.934814,54.683907 751.067200,63.023354 
	C753.949951,84.254448 747.257019,103.533958 740.070740,122.863785 
	C737.764160,129.068100 733.109070,134.433884 733.898071,141.857712 
	C734.547363,147.967697 736.799927,153.847534 740.377747,153.985245 
	C745.668457,154.188919 749.101807,150.856049 751.276428,146.283615 
	C752.955444,142.753204 754.779785,139.232376 755.906799,135.515472 
	C757.057251,131.721085 759.889221,131.599915 762.455017,132.367126 
	C763.674255,132.731705 764.633484,135.371796 764.950134,137.118851 
	C766.924500,148.013092 761.672241,155.821976 753.882690,162.591843 
	C744.805542,170.480804 729.114075,167.875458 721.120544,156.557922 
	C716.055237,160.715668 712.301086,166.893402 704.586670,167.049286 
	C697.204895,167.198456 691.249023,165.555939 688.773499,158.816010 
	C684.382874,161.536697 680.340454,165.123749 675.636658,166.592270 
	C672.259216,167.646667 667.998169,165.870300 664.018188,164.659851 
	C665.593506,159.322845 667.281982,154.682785 668.970398,150.042709 
M734.023132,99.814171 
	C734.076965,100.307022 734.130737,100.799873 734.184570,101.292725 
	C737.864014,88.012138 740.071411,74.687065 736.642273,61.171890 
	C735.808105,61.140194 734.973938,61.108498 734.139709,61.076801 
	C733.895813,73.691971 734.069702,86.324341 734.023132,99.814171 
z"/>
<path fill="#E676E1" opacity="1.000000" stroke="none" 
	d="
M424.019531,156.917679 
	C419.423248,162.021423 414.929962,166.734863 407.104889,167.103607 
	C398.899078,167.490311 391.093384,162.018707 391.062866,151.292984 
	C391.031616,140.309143 391.118988,129.324554 391.015289,118.341599 
	C390.986298,115.270912 390.465302,112.204865 390.018036,107.558044 
	C387.116058,109.913086 384.773773,111.156631 383.353241,113.080704 
	C377.240662,121.359810 373.060486,130.318024 373.746643,141.070847 
	C374.159119,147.534973 373.896637,154.048126 373.788574,160.536774 
	C373.739807,163.466583 373.862946,166.592606 369.496338,166.901886 
	C363.176575,167.349518 359.945740,166.064728 359.061371,162.036575 
	C358.504913,159.502075 358.126221,156.871368 358.118622,154.282486 
	C358.048706,130.484192 358.077423,106.685593 358.077423,82.887085 
	C358.077423,72.476166 358.077423,62.065243 358.077423,51.146751 
	C360.509216,51.146751 363.784576,51.146751 367.619995,51.414375 
	C368.401154,51.916710 368.672668,52.023697 368.994507,52.002964 
	C368.994507,52.002964 369.000000,51.999847 369.045410,52.366978 
	C370.011993,56.182587 371.630157,59.611523 371.727478,63.083103 
	C372.058929,74.903908 371.854187,86.739746 371.854126,98.569839 
	C371.854126,102.312683 371.854126,106.055527 371.854126,109.798370 
	C372.187134,109.842270 372.520142,109.886169 372.853149,109.930069 
	C373.234772,108.957085 373.616364,107.984108 373.997986,107.011124 
	C378.943634,101.322525 383.560333,95.289185 392.474640,96.045525 
	C400.996094,96.768539 405.259125,101.026031 405.698486,109.988106 
	C406.227875,120.786369 405.752991,131.631287 405.861877,142.454514 
	C405.889374,145.191376 406.317871,147.957855 406.890533,150.640610 
	C407.156403,151.886185 408.184937,153.900528 408.909943,153.919098 
	C410.339539,153.955688 412.349121,153.234940 413.135345,152.128540 
	C415.000671,149.503540 416.856415,146.628830 417.712982,143.573822 
	C420.720367,132.847427 423.310059,122.003769 426.042206,111.200562 
	C426.441620,109.621384 426.721161,108.012115 427.110992,106.430275 
	C428.792664,99.606079 434.131592,96.747597 440.857971,99.282372 
	C441.744720,99.616539 442.160950,101.199310 442.406158,102.712013 
	C441.258423,105.781326 440.499664,108.342422 439.740906,110.903519 
	C439.756256,111.371910 439.771637,111.840309 439.457031,112.700684 
	C439.044647,113.713020 438.962219,114.333366 438.879822,114.953712 
	C438.851196,115.411644 438.822601,115.869576 438.467804,116.707436 
	C438.027466,117.700272 437.913300,118.313179 437.799133,118.926079 
	C437.794525,119.389725 437.789886,119.853371 437.428070,120.734947 
	C436.984253,122.078568 436.897675,123.004257 436.811096,123.929947 
	C436.803284,124.699593 436.795502,125.469231 436.400757,126.733917 
	C435.943024,128.796066 435.872253,130.363159 435.801483,131.930267 
	C435.792877,133.340591 435.784271,134.750900 435.338562,136.594147 
	C430.728943,139.142914 424.179932,151.113480 424.019531,156.917679 
z"/>
<path fill="#BB79DC" opacity="1.000000" stroke="none" 
	d="
M469.688110,150.132401 
	C472.716095,155.366318 476.617706,155.647766 479.053070,150.017792 
	C482.062469,143.060806 484.506165,135.686127 485.913177,128.249542 
	C488.025299,117.086128 491.790955,107.125244 500.861725,99.811058 
	C506.027161,95.645912 512.166382,97.161873 518.474854,97.505722 
	C518.966248,98.225700 519.007568,98.578773 518.983521,99.290970 
	C516.619141,102.764572 514.320129,105.879051 511.640381,108.932098 
	C510.488831,108.865791 509.718018,108.860916 508.711243,108.680832 
	C507.298096,109.942322 506.120911,111.379013 504.887268,113.117821 
	C504.755859,113.610641 504.680908,113.801346 504.300079,114.106239 
	C503.272003,116.793518 502.549774,119.366600 501.818481,122.285294 
	C501.739380,123.083763 501.669281,123.536621 501.306335,124.118622 
	C500.945465,125.810173 500.877472,127.372574 500.813293,129.361877 
	C500.801483,131.211441 500.785950,132.634094 500.573059,134.342194 
	C498.208008,139.468948 496.236603,144.412796 493.785309,149.106003 
	C492.651367,151.276947 490.581421,152.958984 488.935822,154.862686 
	C488.935822,154.862686 488.939209,154.943161 488.594147,155.040237 
	C487.812286,156.046722 487.375488,156.956146 486.938690,157.865555 
	C486.938690,157.865555 486.942047,157.944290 486.596252,158.040939 
	C485.815430,159.049591 485.380432,159.961594 484.945435,160.873611 
	C484.945435,160.873611 484.959778,160.956985 484.737610,161.085663 
	C484.289062,161.404236 484.105377,161.628983 483.964325,161.888611 
	C483.964325,161.888611 483.959564,161.970139 483.751617,162.047318 
	C483.330902,162.261780 483.159485,162.439056 483.029419,162.656311 
	C478.565826,166.602051 473.234406,167.386780 467.244080,166.398529 
	C468.595886,161.223541 472.328796,156.876724 469.154694,151.436035 
	C469.010712,151.189209 469.495941,150.575317 469.688110,150.132401 
z"/>
<path fill="#687BCC" opacity="1.000000" stroke="none" 
	d="
M621.693359,99.970795 
	C622.258972,100.587212 622.838013,101.746536 623.388000,101.732918 
	C627.288513,101.636292 631.183044,101.299454 635.535889,101.481369 
	C634.490479,110.698753 632.864380,112.165634 624.124146,113.077797 
	C623.289246,113.164932 622.562317,114.286400 621.785217,114.927689 
	C622.761597,116.738892 623.738037,118.550072 624.559692,120.863861 
	C619.116699,131.250687 613.790710,141.115128 608.593811,151.047134 
	C608.022644,152.138763 608.191895,153.617783 607.800659,155.124023 
	C607.348572,155.873825 607.113647,156.416763 606.628967,157.119659 
	C605.930054,157.905045 605.480896,158.530457 605.031677,159.155869 
	C600.220703,166.050735 593.509155,167.998016 585.605103,166.211288 
	C587.441040,161.890839 589.202515,158.006210 590.963928,154.121582 
	C594.403931,154.693649 596.863281,153.174164 598.126587,150.147369 
	C601.913635,141.073486 607.354919,132.580933 607.267273,122.148766 
	C607.234436,118.234039 606.614258,115.125877 603.362122,112.662552 
	C600.340332,110.373756 600.368530,107.438408 602.694946,104.674713 
	C602.257202,110.584213 606.291260,112.984108 610.720825,116.375992 
	C612.681946,112.527397 614.190247,108.943161 616.261230,105.720490 
	C617.662109,103.540550 619.854858,101.869492 621.693359,99.970795 
z"/>
<path fill="#D177DE" opacity="1.000000" stroke="none" 
	d="
M435.780426,146.093872 
	C436.136200,146.884048 436.383698,147.749100 436.868469,148.450043 
	C438.203705,150.380692 439.476318,153.618362 441.071899,153.806229 
	C443.409027,154.081406 447.368347,152.823990 448.246216,151.042114 
	C451.370758,144.699982 454.581970,138.036560 455.689911,131.161133 
	C456.946289,123.364510 456.126465,115.204536 455.885742,107.212273 
	C455.809601,104.683807 454.694305,102.186623 453.975830,99.366035 
	C459.233551,98.720230 464.217102,98.121674 468.900909,101.994385 
	C469.227570,102.723724 469.403168,102.873291 469.627991,102.965118 
	C469.675964,113.330727 469.723907,123.696327 469.338654,134.540726 
	C467.923370,135.562592 466.466095,135.858322 466.034363,136.687836 
	C462.562408,143.358307 459.283875,150.129425 455.946167,156.869766 
	C455.946167,156.869766 455.945618,156.948700 455.601807,157.039642 
	C454.819855,158.030151 454.381683,158.929733 453.943512,159.829300 
	C452.794556,161.141418 451.645630,162.453522 450.012421,163.941513 
	C449.313049,164.248199 449.144012,164.423477 449.021027,164.643204 
	C444.560242,168.073959 439.434723,166.896011 434.283875,166.028915 
	C436.923065,159.993134 439.452698,154.688263 435.247742,148.820877 
	C434.877563,148.304413 435.577515,147.021042 435.780426,146.093872 
z"/>
<path fill="#AD7ADA" opacity="1.000000" stroke="none" 
	d="
M512.021179,108.993530 
	C514.320129,105.879051 516.619141,102.764572 519.346802,99.314392 
	C520.506348,98.991020 521.237061,99.003334 521.967834,99.015656 
	C521.967834,99.015656 522.002136,98.996353 522.105591,99.224152 
	C522.402771,99.712097 522.651428,99.899178 522.955078,100.013184 
	C523.237244,100.189835 523.519348,100.366493 523.974792,100.976028 
	C524.296936,101.654976 524.493469,101.854103 524.737549,102.006302 
	C524.772156,102.187729 524.806702,102.369148 524.909241,103.190125 
	C525.860474,105.900833 526.743774,107.971977 527.627014,110.043121 
	C527.677307,111.734985 527.727600,113.426842 527.387634,115.681587 
	C526.290222,119.486320 525.583008,122.728157 524.875854,125.970001 
	C524.416199,127.204269 523.956543,128.438538 522.873718,129.896301 
	C521.821350,131.051743 521.392151,131.983658 520.962952,132.915558 
	C520.578857,133.455063 520.194763,133.994553 519.466492,134.828888 
	C518.971619,135.233749 518.897644,135.382050 518.900330,135.568588 
	C518.900330,135.568588 518.920654,135.821777 518.637146,135.954193 
	C518.144226,136.236954 517.999817,136.434708 517.920288,136.679901 
	C517.920288,136.679901 517.780640,136.920914 517.502930,136.966461 
	C517.050110,137.128647 516.943787,137.290512 516.906311,137.497589 
	C516.906311,137.497589 516.909058,137.780746 516.635925,137.915604 
	C516.172852,138.180420 516.054382,138.358063 516.007324,138.583374 
	C515.200928,139.292450 514.394531,140.001511 513.098267,140.940720 
	C512.364685,141.334259 512.157532,141.535370 511.986938,141.774200 
	C509.344513,142.966965 506.702087,144.159729 503.739380,145.940704 
	C504.793335,148.671341 505.905212,151.059448 507.616241,152.886520 
	C509.299438,154.683838 512.949646,155.670792 513.265625,157.451767 
	C513.647949,159.606537 511.422394,162.216644 510.355011,164.642715 
	C510.157379,165.091934 510.100067,165.602875 509.977966,166.085312 
	C502.930267,165.252899 497.731049,161.291077 493.060669,156.299881 
	C492.252106,155.435791 490.779510,155.193008 489.274719,154.762970 
	C490.581421,152.958984 492.651367,151.276947 493.785309,149.106003 
	C496.236603,144.412796 498.208008,139.468948 500.942810,134.331329 
	C511.160645,128.678619 515.449341,118.461418 512.021179,108.993530 
z"/>
<path fill="#AD7CDE" opacity="1.000000" stroke="none" 
	d="
M541.329529,99.988609 
	C541.166565,98.723610 541.003601,97.458603 540.787903,95.784302 
	C537.407349,95.784302 534.153992,95.784302 530.346558,95.408859 
	C528.892761,94.685501 527.992981,94.337601 527.093262,93.989685 
	C526.786194,93.794113 526.479187,93.598557 526.016296,92.971222 
	C525.734192,92.329063 525.561584,92.168411 525.342651,92.057495 
	C524.890564,90.339989 524.295654,88.645119 524.019165,86.899803 
	C523.577026,84.109688 524.977661,82.982346 527.731812,83.040924 
	C531.995544,83.131599 536.262634,83.064835 540.222412,83.064835 
	C540.222412,72.968018 540.156372,62.105003 540.310364,51.245110 
	C540.328552,49.964493 541.239929,48.021118 542.273010,47.543297 
	C547.729614,45.019470 554.857056,49.639645 554.904480,55.595116 
	C554.977295,64.747749 554.927795,73.901360 554.612854,83.536469 
	C552.179504,86.714874 550.097961,89.439369 547.937805,92.100014 
	C545.775940,94.762764 543.535522,97.361702 541.329529,99.988609 
z"/>
<path fill="#807DD4" opacity="1.000000" stroke="none" 
	d="
M582.015259,98.232330 
	C586.802979,98.955841 589.178223,101.545380 589.051941,106.579361 
	C588.872192,113.740189 588.988892,120.908455 588.578369,128.609833 
	C581.609741,136.625366 577.437134,145.327728 575.006775,155.194427 
	C575.001038,155.645386 575.003479,155.825806 575.005920,156.006226 
	C570.194763,164.337555 563.031860,167.947952 553.243530,166.025391 
	C554.688477,162.206528 556.356567,159.098526 558.405945,155.989960 
	C560.879822,154.714401 562.972412,153.439423 565.065002,152.164429 
	C565.065002,152.164429 565.061096,152.059814 565.437256,151.953979 
	C567.248657,147.914078 568.683960,143.979996 570.119263,140.045929 
	C570.151611,139.573196 570.183960,139.100449 570.445801,138.092743 
	C570.799927,137.094193 570.924438,136.630615 571.048950,136.167023 
	C571.093994,135.971466 571.139038,135.775879 571.580933,135.226868 
	C573.049500,133.608124 574.121033,132.342804 575.192627,131.077484 
	C575.198853,125.030006 575.205078,118.982529 575.597412,112.339111 
	C577.994141,107.239555 580.004700,102.735947 582.015259,98.232330 
z"/>
<path fill="#9F7EDD" opacity="1.000000" stroke="none" 
	d="
M541.239014,100.450180 
	C543.535522,97.361702 545.775940,94.762764 547.937805,92.100014 
	C550.097961,89.439369 552.179504,86.714874 554.665222,84.001617 
	C561.375000,83.991013 567.714966,83.997162 574.479370,84.357559 
	C573.583130,88.345428 572.262451,91.979027 570.941833,95.612625 
	C565.844543,95.612625 560.747253,95.612625 554.887207,95.612625 
	C554.887207,102.006783 554.887207,108.035034 554.458740,114.546295 
	C552.764709,116.199112 551.120789,117.151527 550.301331,118.577690 
	C547.318848,123.768318 544.779297,129.217773 541.701599,134.346909 
	C540.750671,135.931671 538.617004,136.806747 537.024902,138.006775 
	C537.078369,137.231018 537.131836,136.455276 537.411621,135.177994 
	C537.805420,134.485184 537.920532,134.266327 537.983093,134.019897 
	C538.040894,133.558624 538.098694,133.097366 538.397583,132.194260 
	C538.821533,131.584335 538.957703,131.384460 539.047180,131.152817 
	C539.047180,131.152817 539.049377,131.051865 539.393066,131.043182 
	C540.198242,130.370804 540.659790,129.707077 541.121399,129.043365 
	C541.130432,119.666161 541.139404,110.288963 541.239014,100.450180 
z"/>
<path fill="#3E79BF" opacity="1.000000" stroke="none" 
	d="
M645.862915,187.982422 
	C646.525085,199.632095 644.016541,210.577530 638.521667,220.847916 
	C634.122192,229.070877 626.084534,232.808823 617.315613,229.710846 
	C611.777588,227.754333 609.724365,222.126877 608.322510,216.880737 
	C607.358398,213.272903 607.522278,209.363632 607.637024,205.459717 
	C608.402649,206.902740 608.640869,208.493683 609.037598,210.044037 
	C610.129395,214.310364 611.139954,218.608261 612.513672,222.784821 
	C612.904114,223.972107 614.390869,225.507446 615.443359,225.561951 
	C616.426270,225.612869 617.694580,224.050919 618.492737,222.949234 
	C620.105530,220.723068 621.484741,218.327667 623.289429,216.151581 
	C628.849304,217.389679 628.612488,212.616211 628.938171,210.241470 
	C630.451599,199.204483 631.292542,188.075287 632.707153,177.158112 
	C633.201660,182.528778 633.591248,187.726273 633.457764,192.910309 
	C633.334961,197.677155 632.649109,202.429474 632.211365,207.188202 
	C632.751160,207.347336 633.290955,207.506470 633.830750,207.665604 
	C636.472290,202.625748 639.001587,197.521988 641.815857,192.580566 
	C642.805359,190.843109 644.493713,189.503632 645.862915,187.982422 
z"/>
<path fill="#967CD8" opacity="1.000000" stroke="none" 
	d="
M536.761047,138.123825 
	C538.617004,136.806747 540.750671,135.931671 541.701599,134.346909 
	C544.779297,129.217773 547.318848,123.768318 550.301331,118.577690 
	C551.120789,117.151527 552.764709,116.199112 554.380859,115.008133 
	C554.786316,121.014107 554.841309,127.041283 554.466003,133.552185 
	C553.086670,134.607452 551.755920,134.947769 551.248108,135.786438 
	C546.409058,143.778305 541.709473,151.854614 536.969849,159.906662 
	C532.945740,161.924515 528.921631,163.942368 524.297363,166.078003 
	C523.428284,166.339722 523.196045,166.528824 523.000610,166.763062 
	C521.614563,166.813248 520.228516,166.863419 518.425049,166.467621 
	C518.717468,160.895142 520.879211,156.572708 525.025818,153.349548 
	C525.201721,153.289505 525.377625,153.229446 526.155884,153.094025 
	C527.515320,152.373032 528.272400,151.727386 529.029480,151.081741 
	C530.043213,149.905685 531.057007,148.729614 532.385376,147.181320 
	C532.876465,146.663132 532.999512,146.481033 533.069092,146.262802 
	C533.069092,146.262802 533.076355,146.053406 533.351807,145.943390 
	C533.834778,145.638931 533.969055,145.402802 534.030090,145.125031 
	C534.852478,142.830307 535.674805,140.535599 536.761047,138.123825 
z"/>
<path fill="#6183D6" opacity="1.000000" stroke="none" 
	d="
M608.017761,154.917130 
	C608.191895,153.617783 608.022644,152.138763 608.593811,151.047134 
	C613.790710,141.115128 619.116699,131.250687 624.692505,121.184395 
	C627.975952,125.385635 630.971863,129.768951 633.948242,134.855042 
	C631.618164,139.046494 629.307556,142.535141 626.777710,145.780548 
	C625.498535,144.019211 624.438599,142.501114 623.280396,140.704117 
	C623.125122,140.236465 623.068176,140.047729 622.964233,139.585693 
	C622.580444,139.056747 622.243774,138.801102 621.907104,138.545471 
	C621.631897,139.042999 621.356689,139.540527 621.048889,140.488495 
	C621.233948,146.624191 621.451599,152.309433 621.331421,158.022217 
	C618.413330,161.863113 615.985718,165.793350 613.190735,169.442230 
	C611.714050,171.370148 609.597473,172.807983 607.769775,174.467041 
	C607.613647,169.857407 607.457458,165.247772 607.817749,159.913269 
	C608.528687,158.477142 608.723267,157.765884 608.900024,156.754028 
	C608.594055,155.941315 608.305908,155.429214 608.017761,154.917130 
z"/>
<path fill="#7A82DA" opacity="1.000000" stroke="none" 
	d="
M621.766846,99.509506 
	C619.854858,101.869492 617.662109,103.540550 616.261230,105.720490 
	C614.190247,108.943161 612.681946,112.527397 610.720825,116.375992 
	C606.291260,112.984108 602.257202,110.584213 603.041382,104.555107 
	C603.034729,104.155693 603.041138,104.042809 603.269043,103.978043 
	C603.718689,103.784737 603.879089,103.602303 603.978149,103.365967 
	C604.731934,103.258575 605.485657,103.151184 606.998169,102.895660 
	C608.176086,101.086014 608.912537,99.433022 608.957397,97.761475 
	C609.116211,91.845627 609.038635,85.923439 609.390137,79.934540 
	C612.110229,75.997833 614.336975,72.022339 616.940002,68.310867 
	C618.136475,66.604950 620.071106,65.416779 621.670959,63.993835 
	C621.727417,75.678619 621.783875,87.363411 621.766846,99.509506 
z"/>
<path fill="#4D84D2" opacity="1.000000" stroke="none" 
	d="
M654.295471,136.112747 
	C654.277466,135.642563 654.259399,135.172379 654.643860,134.185059 
	C657.369690,122.568062 659.692993,111.468185 662.016235,100.368301 
	C665.380798,99.939186 668.785767,98.987122 672.097290,99.243454 
	C674.836121,99.455460 675.050293,101.734924 674.256226,104.435661 
	C672.243896,111.279366 670.656311,118.247963 668.471924,125.602951 
	C665.065002,130.625305 662.251099,135.333069 659.023132,139.737442 
	C657.725525,141.507919 655.519165,142.612457 653.726379,144.020081 
	C653.740601,143.700989 653.754761,143.381882 654.230774,142.576660 
	C654.560242,140.097946 654.427856,138.105347 654.295471,136.112747 
z"/>
<path fill="#4884D2" opacity="1.000000" stroke="none" 
	d="
M645.922852,187.759201 
	C644.493713,189.503632 642.805359,190.843109 641.815857,192.580566 
	C639.001587,197.521988 636.472290,202.625748 633.830750,207.665604 
	C633.290955,207.506470 632.751160,207.347336 632.211365,207.188202 
	C632.649109,202.429474 633.334961,197.677155 633.457764,192.910309 
	C633.591248,187.726273 633.201660,182.528778 632.631836,176.826248 
	C632.195984,175.862534 632.168396,175.409729 632.363098,174.692154 
	C632.742188,173.284851 632.899109,172.142288 633.380554,170.910233 
	C635.509583,168.133759 637.159729,165.323151 639.176392,162.806259 
	C640.384644,161.298340 642.165894,160.249649 643.689575,158.994553 
	C644.461609,165.661041 645.233643,172.327530 646.082397,179.657288 
	C646.283203,180.585663 646.465027,180.802383 646.704529,180.970718 
	C646.757629,182.378448 646.810730,183.786194 646.624756,185.750977 
	C646.192505,186.529495 646.075623,186.785721 646.034973,187.076736 
	C646.034973,187.076736 645.982727,187.535980 645.922852,187.759201 
z"/>
<path fill="#4F85D4" opacity="1.000000" stroke="none" 
	d="
M622.960266,216.002060 
	C621.484741,218.327667 620.105530,220.723068 618.492737,222.949234 
	C617.694580,224.050919 616.426270,225.612869 615.443359,225.561951 
	C614.390869,225.507446 612.904114,223.972107 612.513672,222.784821 
	C611.139954,218.608261 610.129395,214.310364 609.037598,210.044037 
	C608.640869,208.493683 608.402649,206.902740 607.742065,205.071472 
	C607.348450,203.139908 607.304993,201.467224 607.762207,199.378357 
	C609.641602,197.955856 611.456299,197.227325 612.310303,195.886749 
	C614.239136,192.858795 615.489197,189.397232 617.429626,186.378311 
	C618.356201,184.936737 620.226990,184.102112 621.756226,183.454865 
	C621.901550,193.596619 621.960815,203.276077 622.080872,213.156860 
	C622.268311,213.616302 622.450562,213.826080 622.750244,214.320892 
	C622.861450,215.103531 622.910828,215.552795 622.960266,216.002060 
z"/>
<path fill="#4380CA" opacity="1.000000" stroke="none" 
	d="
M653.519287,144.344696 
	C655.519165,142.612457 657.725525,141.507919 659.023132,139.737442 
	C662.251099,135.333069 665.065002,130.625305 668.388062,126.009911 
	C668.467896,131.980026 668.120728,137.977814 667.994751,143.980270 
	C667.958313,145.713318 668.557739,147.459732 668.918030,149.621368 
	C667.281982,154.682785 665.593506,159.322845 663.810242,164.372467 
	C661.894653,163.324432 660.073914,161.866852 658.065735,159.941803 
	C657.755615,159.305176 657.604919,159.166504 657.426208,159.058350 
	C657.003174,158.201355 656.580078,157.344360 656.016968,155.988693 
	C655.752197,155.311569 655.596741,155.166046 655.410461,155.053467 
	C654.710999,151.592087 654.011597,148.130692 653.519287,144.344696 
z"/>
<path fill="#5A84D6" opacity="1.000000" stroke="none" 
	d="
M621.670166,182.992584 
	C620.226990,184.102112 618.356201,184.936737 617.429626,186.378311 
	C615.489197,189.397232 614.239136,192.858795 612.310303,195.886749 
	C611.456299,197.227325 609.641602,197.955856 607.858154,198.968811 
	C607.438965,191.043396 607.424561,183.111343 607.589966,174.823181 
	C609.597473,172.807983 611.714050,171.370148 613.190735,169.442230 
	C615.985718,165.793350 618.413330,161.863113 621.416992,158.484467 
	C621.783630,166.943634 621.726929,174.968109 621.670166,182.992584 
z"/>
<path fill="#7982D9" opacity="1.000000" stroke="none" 
	d="
M575.014893,154.923889 
	C577.437134,145.327728 581.609741,136.625366 588.506348,129.073669 
	C589.206543,136.703461 589.567566,144.406250 589.977051,152.106476 
	C590.000305,152.543015 590.420288,152.958466 590.809814,153.752655 
	C589.202515,158.006210 587.441040,161.890839 585.354492,165.882248 
	C584.569580,165.935913 584.109863,165.882812 583.184570,165.612778 
	C582.528076,165.201416 582.302551,165.063553 582.042542,164.982239 
	C582.042542,164.982239 581.993530,164.994705 581.894836,164.768555 
	C581.602661,164.290039 581.359436,164.101929 581.066528,163.978088 
	C580.457458,163.475189 579.848389,162.972275 579.124390,161.816956 
	C578.317932,158.984299 577.655762,156.793106 576.857788,154.652542 
	C576.812439,154.530899 575.654846,154.823868 575.014893,154.923889 
z"/>
<path fill="#947FDC" opacity="1.000000" stroke="none" 
	d="
M580.997803,61.200680 
	C585.880493,60.627247 590.521606,60.791058 593.918640,65.886658 
	C594.250244,66.664360 594.443237,66.861679 594.699951,66.996719 
	C595.070923,68.755478 595.441895,70.514252 595.541626,72.766869 
	C595.088684,73.472733 594.999084,73.718338 595.001526,73.997543 
	C594.187805,75.895287 593.374084,77.793030 591.821899,79.834274 
	C581.828613,82.219933 580.588867,81.703423 575.208557,73.427551 
	C575.054443,73.190521 574.650391,73.115974 574.362915,72.965668 
	C574.309326,71.914375 574.255737,70.863083 574.585815,69.321877 
	C575.677673,67.290596 576.385864,65.749229 577.094116,64.207870 
	C577.094116,64.207878 577.104431,64.054420 577.353271,63.983566 
	C577.819580,63.764965 577.974304,63.567905 578.066223,63.321526 
	C578.066223,63.321526 578.148376,63.078732 578.400757,63.020294 
	C578.813171,62.858795 578.910706,62.713730 578.945679,62.526661 
	C579.096008,62.412060 579.246399,62.297459 579.861877,61.983444 
	C580.574646,61.617188 580.798218,61.422737 580.997803,61.200680 
z"/>
<path fill="#5483D2" opacity="1.000000" stroke="none" 
	d="
M643.730225,158.610474 
	C642.165894,160.249649 640.384644,161.298340 639.176392,162.806259 
	C637.159729,165.323151 635.509583,168.133759 633.221924,170.707870 
	C632.285278,170.383026 631.831787,170.171036 631.306152,169.585449 
	C631.229004,168.451019 631.223999,167.690216 631.406372,166.717896 
	C631.182068,165.661148 630.770386,164.815887 630.288574,163.634720 
	C630.232239,162.842178 630.245972,162.385544 630.451050,161.644775 
	C629.427307,156.248352 628.212097,151.136078 626.996948,146.023804 
	C629.307556,142.535141 631.618164,139.046494 634.009644,135.204056 
	C637.317322,142.642303 640.544006,150.434341 643.730225,158.610474 
z"/>
<path fill="#8480DA" opacity="1.000000" stroke="none" 
	d="
M621.755188,63.545063 
	C620.071106,65.416779 618.136475,66.604950 616.940002,68.310867 
	C614.336975,72.022339 612.110229,75.997833 609.376831,79.465652 
	C609.014893,73.629143 609.125183,68.187965 608.922974,62.758419 
	C608.863281,61.156967 607.920166,59.588421 607.381836,58.004799 
	C607.317261,56.587498 607.252625,55.170197 607.368774,53.098286 
	C607.358398,51.042480 607.167297,49.641285 606.976196,48.240089 
	C614.223694,44.675453 621.689453,48.539700 621.872314,57.649445 
	C621.908752,59.464108 621.852783,61.280621 621.755188,63.545063 
z"/>
<path fill="#8D7ED9" opacity="1.000000" stroke="none" 
	d="
M537.313843,159.869980 
	C541.709473,151.854614 546.409058,143.778305 551.248108,135.786438 
	C551.755920,134.947769 553.086670,134.607452 554.386475,134.013855 
	C554.810242,138.998703 554.883240,144.005600 555.052002,149.677917 
	C555.276367,150.603424 555.458313,150.818329 555.693665,150.988083 
	C555.745605,151.185852 555.797485,151.383636 555.971497,152.059418 
	C556.222900,152.763550 556.405029,152.932938 556.639954,153.045578 
	C556.936646,153.311951 557.233337,153.578323 557.725830,154.357605 
	C557.955933,155.243866 557.990295,155.617188 558.024658,155.990540 
	C556.356567,159.098526 554.688477,162.206528 552.998352,165.691895 
	C547.350220,164.919113 544.733337,162.451538 542.690918,156.261398 
	C540.986694,157.470871 539.322266,158.652084 537.313843,159.869980 
z"/>
<path fill="#C577DC" opacity="1.000000" stroke="none" 
	d="
M456.297363,156.993027 
	C459.283875,150.129425 462.562408,143.358307 466.034363,136.687836 
	C466.466095,135.858322 467.923370,135.562592 469.245178,134.999512 
	C469.656311,139.715500 469.727661,144.451477 469.743530,149.659943 
	C469.495941,150.575317 469.010712,151.189209 469.154694,151.436035 
	C472.328796,156.876724 468.595886,161.223541 466.850098,166.295471 
	C461.704193,165.289078 458.006073,162.438507 456.297363,156.993027 
z"/>
<path fill="#8373C7" opacity="1.000000" stroke="none" 
	d="
M574.262634,73.345673 
	C574.650391,73.115974 575.054443,73.190521 575.208557,73.427551 
	C580.588867,81.703423 581.828613,82.219933 591.490479,79.968369 
	C591.588196,81.702957 591.055176,83.441010 591.008789,85.191963 
	C590.831543,91.878784 590.303833,97.053764 581.232239,95.921669 
	C578.153320,95.537437 574.989380,95.835350 571.403076,95.717087 
	C572.262451,91.979027 573.583130,88.345428 574.947083,84.351936 
	C576.816223,83.518951 578.642029,83.045845 580.739014,82.502464 
	C576.681702,80.948959 573.992310,78.343529 574.262634,73.345673 
z"/>
<path fill="#DC77E1" opacity="1.000000" stroke="none" 
	d="
M435.796875,145.636414 
	C435.577515,147.021042 434.877563,148.304413 435.247742,148.820877 
	C439.452698,154.688263 436.923065,159.993134 434.049194,165.673889 
	C430.720032,163.219757 427.452271,160.405685 424.102020,157.254654 
	C424.179932,151.113480 430.728943,139.142914 435.242523,137.006165 
	C435.660156,139.716492 435.736755,142.447708 435.796875,145.636414 
z"/>
<path fill="#597BC8" opacity="1.000000" stroke="none" 
	d="
M622.258667,114.821182 
	C622.562317,114.286400 623.289246,113.164932 624.124146,113.077797 
	C632.864380,112.165634 634.490479,110.698753 635.991821,101.540466 
	C637.643127,101.093292 639.296875,100.945663 640.946350,100.983665 
	C643.823486,101.049988 648.089294,100.074844 648.480286,103.733963 
	C648.923462,107.880211 647.346069,112.260620 646.468079,116.502167 
	C646.378601,116.934456 644.787537,117.587563 644.356384,117.338036 
	C637.499512,113.369537 629.941711,115.490891 622.258667,114.821182 
z"/>
<path fill="#926FC4" opacity="1.000000" stroke="none" 
	d="
M524.612610,153.281219 
	C520.879211,156.572708 518.717468,160.895142 518.013916,166.401184 
	C515.501160,166.771011 512.982178,166.761322 510.220581,166.418457 
	C510.100067,165.602875 510.157379,165.091934 510.355011,164.642715 
	C511.422394,162.216644 513.647949,159.606537 513.265625,157.451767 
	C512.949646,155.670792 509.299438,154.683838 507.616241,152.886520 
	C505.905212,151.059448 504.793335,148.671341 503.613098,146.296844 
	C510.523163,154.122116 515.702515,155.937653 524.612610,153.281219 
z"/>
<path fill="#B65DB3" opacity="1.000000" stroke="none" 
	d="
M373.983704,106.541939 
	C373.616364,107.984108 373.234772,108.957085 372.853149,109.930069 
	C372.520142,109.886169 372.187134,109.842270 371.854126,109.798370 
	C371.854126,106.055527 371.854126,102.312683 371.854126,98.569839 
	C371.854187,86.739746 372.058929,74.903908 371.727478,63.083103 
	C371.630157,59.611523 370.011993,56.182587 369.043945,52.369961 
	C373.232452,52.963291 373.975800,56.121201 373.972382,59.806583 
	C373.958130,75.228622 373.968231,90.650688 373.983704,106.541939 
z"/>
<path fill="#687BCC" opacity="1.000000" stroke="none" 
	d="
M607.281799,58.461823 
	C607.920166,59.588421 608.863281,61.156967 608.922974,62.758419 
	C609.125183,68.187965 609.014893,73.629143 609.037292,79.534760 
	C609.038635,85.923439 609.116211,91.845627 608.957397,97.761475 
	C608.912537,99.433022 608.176086,101.086014 607.380005,102.870720 
	C607.062744,88.302231 607.122253,73.610535 607.281799,58.461823 
z"/>
<path fill="#8373C7" opacity="1.000000" stroke="none" 
	d="
M581.606689,98.141823 
	C580.004700,102.735947 577.994141,107.239555 575.686646,111.879715 
	C574.993225,108.830399 574.324097,105.649712 574.263611,102.457497 
	C574.170044,97.521400 577.902161,97.990929 581.606689,98.141823 
z"/>
<path fill="#4380CA" opacity="1.000000" stroke="none" 
	d="
M661.661621,100.417267 
	C659.692993,111.468185 657.369690,122.568062 654.725464,133.840973 
	C654.450439,122.367485 657.255737,111.288696 661.661621,100.417267 
z"/>
<path fill="#8373C7" opacity="1.000000" stroke="none" 
	d="
M569.778687,140.195297 
	C568.683960,143.979996 567.248657,147.914078 565.489502,151.955673 
	C566.589844,148.157028 568.013977,144.250839 569.778687,140.195297 
z"/>
<path fill="#926FC4" opacity="1.000000" stroke="none" 
	d="
M525.216370,125.805565 
	C525.583008,122.728157 526.290222,119.486320 527.309326,116.098297 
	C526.933167,119.181793 526.245056,122.411461 525.216370,125.805565 
z"/>
<path fill="#D177DE" opacity="1.000000" stroke="none" 
	d="
M440.090210,110.774757 
	C440.499664,108.342422 441.258423,105.781326 442.322815,103.107468 
	C441.898834,105.545143 441.169220,108.095573 440.090210,110.774757 
z"/>
<path fill="#8373C7" opacity="1.000000" stroke="none" 
	d="
M558.405884,155.989960 
	C557.990295,155.617188 557.955933,155.243866 557.915710,154.589355 
	C560.050171,153.638596 562.190552,152.969025 564.697998,152.231949 
	C562.972412,153.439423 560.879822,154.714401 558.405884,155.989960 
z"/>
<path fill="#687BCC" opacity="1.000000" stroke="none" 
	d="
M575.006775,155.194427 
	C575.654846,154.823868 576.812439,154.530899 576.857788,154.652542 
	C577.655762,156.793106 578.317932,158.984299 579.019470,161.534119 
	C577.918152,159.998428 576.806824,158.093140 575.350708,156.097046 
	C575.003479,155.825806 575.001038,155.645386 575.006775,155.194427 
z"/>
<path fill="#4380CA" opacity="1.000000" stroke="none" 
	d="
M653.950562,136.289459 
	C654.427856,138.105347 654.560242,140.097946 654.498657,142.539673 
	C654.071655,140.814590 653.838684,138.640381 653.950562,136.289459 
z"/>
<path fill="#926FC4" opacity="1.000000" stroke="none" 
	d="
M527.728516,109.681030 
	C526.743774,107.971977 525.860474,105.900833 524.975403,103.459129 
	C525.925781,105.165367 526.877930,107.242157 527.728516,109.681030 
z"/>
<path fill="#8373C7" opacity="1.000000" stroke="none" 
	d="
M574.865479,131.135651 
	C574.121033,132.342804 573.049500,133.608124 571.677429,134.941711 
	C572.430725,133.737930 573.484497,132.465881 574.865479,131.135651 
z"/>
<path fill="#D177DE" opacity="1.000000" stroke="none" 
	d="
M436.179138,131.810333 
	C435.872253,130.363159 435.943024,128.796066 436.311951,127.108429 
	C436.592346,128.555389 436.574585,130.122894 436.179138,131.810333 
z"/>
<path fill="#8373C7" opacity="1.000000" stroke="none" 
	d="
M576.764648,64.284531 
	C576.385864,65.749229 575.677673,67.290596 574.665405,68.933861 
	C575.052612,67.477570 575.743896,65.919388 576.764648,64.284531 
z"/>
<path fill="#687BCC" opacity="1.000000" stroke="none" 
	d="
M606.668701,48.307468 
	C607.167297,49.641285 607.358398,51.042480 607.362671,52.671577 
	C606.904297,51.391270 606.632751,49.883057 606.668701,48.307468 
z"/>
<path fill="#3E79BF" opacity="1.000000" stroke="none" 
	d="
M608.917908,157.054626 
	C608.723267,157.765884 608.528687,158.477142 607.959290,159.616272 
	C606.933838,159.692688 606.283264,159.341232 605.332153,159.072815 
	C605.480896,158.530457 605.930054,157.905045 606.970215,157.144073 
	C608.013367,157.023880 608.465637,157.039246 608.917908,157.054626 
z"/>
<path fill="#D177DE" opacity="1.000000" stroke="none" 
	d="
M437.151764,123.830536 
	C436.897675,123.004257 436.984253,122.078568 437.338989,121.071182 
	C437.568878,121.903366 437.530640,122.817253 437.151764,123.830536 
z"/>
<path fill="#926FC4" opacity="1.000000" stroke="none" 
	d="
M528.723145,151.132812 
	C528.272400,151.727386 527.515320,152.373032 526.426514,153.026749 
	C526.868774,152.417831 527.642761,151.800842 528.723145,151.132812 
z"/>
<path fill="#AD7ADA" opacity="1.000000" stroke="none" 
	d="
M487.247437,157.778595 
	C487.375488,156.956146 487.812286,156.046722 488.553925,155.038391 
	C488.424591,155.856857 487.990387,156.774246 487.247437,157.778595 
z"/>
<path fill="#C577DC" opacity="1.000000" stroke="none" 
	d="
M454.262207,159.764893 
	C454.381683,158.929733 454.819855,158.030151 455.562500,157.036179 
	C455.438293,157.861359 455.009583,158.780930 454.262207,159.764893 
z"/>
<path fill="#AD7ADA" opacity="1.000000" stroke="none" 
	d="
M485.264709,160.801880 
	C485.380432,159.961594 485.815430,159.049591 486.556885,158.039215 
	C486.436859,158.870605 486.010406,159.800369 485.264709,160.801880 
z"/>
<path fill="#926FC4" opacity="1.000000" stroke="none" 
	d="
M521.282715,132.827667 
	C521.392151,131.983658 521.821350,131.051743 522.567017,130.036484 
	C522.456482,130.882019 522.029480,131.810898 521.282715,132.827667 
z"/>
<path fill="#967CD8" opacity="1.000000" stroke="none" 
	d="
M527.185669,94.294403 
	C527.992981,94.337601 528.892761,94.685501 529.890991,95.320267 
	C529.085693,95.271126 528.181946,94.935127 527.185669,94.294403 
z"/>
<path fill="#967CD8" opacity="1.000000" stroke="none" 
	d="
M540.826538,129.110138 
	C540.659790,129.707077 540.198242,130.370804 539.443359,131.047333 
	C539.610596,130.432404 540.071167,129.804672 540.826538,129.110138 
z"/>
<path fill="#926FC4" opacity="1.000000" stroke="none" 
	d="
M521.864441,98.720078 
	C521.237061,99.003334 520.506348,98.991020 519.412231,98.955276 
	C519.007568,98.578773 518.966248,98.225700 518.925293,97.605118 
	C519.870728,97.699913 520.815918,98.062202 521.864441,98.720078 
z"/>
<path fill="#D177DE" opacity="1.000000" stroke="none" 
	d="
M439.215363,114.914116 
	C438.962219,114.333366 439.044647,113.713020 439.368225,113.041367 
	C439.589905,113.618210 439.570404,114.246361 439.215363,114.914116 
z"/>
<path fill="#D177DE" opacity="1.000000" stroke="none" 
	d="
M438.109497,118.849304 
	C437.913300,118.313179 438.027466,117.700272 438.379578,117.040100 
	C438.551636,117.586075 438.485748,118.179298 438.109497,118.849304 
z"/>
<path fill="#8373C7" opacity="1.000000" stroke="none" 
	d="
M570.772400,136.240860 
	C570.924438,136.630615 570.799927,137.094193 570.521606,137.745514 
	C570.410583,137.393723 570.453247,136.854218 570.772400,136.240860 
z"/>
<path fill="#687BCC" opacity="1.000000" stroke="none" 
	d="
M581.119812,164.224823 
	C581.359436,164.101929 581.602661,164.290039 581.907471,164.746643 
	C581.736877,164.791107 581.454956,164.631348 581.119812,164.224823 
z"/>
<path fill="#8373C7" opacity="1.000000" stroke="none" 
	d="
M595.199829,73.900787 
	C594.999084,73.718338 595.088684,73.472733 595.431396,73.143158 
	C595.763550,73.343910 595.698730,73.603386 595.199829,73.900787 
z"/>
<path fill="#8373C7" opacity="1.000000" stroke="none" 
	d="
M594.741821,66.757431 
	C594.443237,66.861679 594.250244,66.664360 594.061279,66.203751 
	C594.357239,66.030563 594.617920,66.202370 594.741821,66.757431 
z"/>
<path fill="#3280C7" opacity="1.000000" stroke="none" 
	d="
M657.390381,159.254791 
	C657.604919,159.166504 657.755615,159.305176 657.960144,159.604706 
	C657.738525,159.820221 657.509338,159.725616 657.390381,159.254791 
z"/>
<path fill="#AD7ADA" opacity="1.000000" stroke="none" 
	d="
M484.226379,161.875320 
	C484.105377,161.628983 484.289062,161.404236 484.695557,161.090393 
	C484.746613,161.264954 484.617523,161.563492 484.226379,161.875320 
z"/>
<path fill="#AD7ADA" opacity="1.000000" stroke="none" 
	d="
M483.263245,162.723251 
	C483.159485,162.439056 483.330902,162.261780 483.711029,162.042877 
	C483.955475,162.331497 483.828369,162.607803 483.263245,162.723251 
z"/>
<path fill="#C577DC" opacity="1.000000" stroke="none" 
	d="
M449.251282,164.711639 
	C449.144012,164.423477 449.313049,164.248199 449.696594,164.042816 
	C449.942963,164.336044 449.815125,164.606659 449.251282,164.711639 
z"/>
<path fill="#3280C7" opacity="1.000000" stroke="none" 
	d="
M655.370239,155.256516 
	C655.596741,155.166046 655.752197,155.311569 655.958252,155.628067 
	C655.724670,155.845490 655.488159,155.743301 655.370239,155.256516 
z"/>
<path fill="#8373C7" opacity="1.000000" stroke="none" 
	d="
M577.844116,63.322098 
	C577.974304,63.567905 577.819580,63.764965 577.429565,63.992699 
	C577.194824,63.733162 577.316467,63.483154 577.844116,63.322098 
z"/>
<path fill="#687BCC" opacity="1.000000" stroke="none" 
	d="
M582.076172,165.232849 
	C582.302551,165.063553 582.528076,165.201416 582.842773,165.552460 
	C582.680969,165.633865 582.395386,165.558655 582.076172,165.232849 
z"/>
<path fill="#926FC4" opacity="1.000000" stroke="none" 
	d="
M523.260986,166.830078 
	C523.196045,166.528824 523.428284,166.339722 523.910339,166.121490 
	C523.922729,166.330505 523.722046,166.613800 523.260986,166.830078 
z"/>
<path fill="#8373C7" opacity="1.000000" stroke="none" 
	d="
M578.779907,62.505875 
	C578.910706,62.713730 578.813171,62.858795 578.528503,63.009628 
	C578.303955,62.804073 578.374084,62.613300 578.779907,62.505875 
z"/>
<path fill="#3E79BF" opacity="1.000000" stroke="none" 
	d="
M646.745728,180.732269 
	C646.465027,180.802383 646.283203,180.585663 646.100037,180.114777 
	C646.371521,179.999588 646.620117,180.194550 646.745728,180.732269 
z"/>
<path fill="#8373C7" opacity="1.000000" stroke="none" 
	d="
M580.728271,61.123787 
	C580.798218,61.422737 580.574646,61.617188 580.123291,61.873543 
	C580.099243,61.657665 580.278931,61.352283 580.728271,61.123787 
z"/>
<path fill="#3E79BF" opacity="1.000000" stroke="none" 
	d="
M646.246216,186.968475 
	C646.075623,186.785721 646.192505,186.529495 646.546021,186.167084 
	C646.864929,186.376266 646.781982,186.654297 646.246216,186.968475 
z"/>
<path fill="#B65DB3" opacity="1.000000" stroke="none" 
	d="
M368.947083,51.734612 
	C368.672668,52.023697 368.401154,51.916710 368.073059,51.484299 
	C368.277313,51.346481 368.588470,51.406368 368.947083,51.734612 
z"/>
<path fill="#967CD8" opacity="1.000000" stroke="none" 
	d="
M525.291809,92.275658 
	C525.561584,92.168411 525.734192,92.329063 525.929321,92.703842 
	C525.657715,92.921494 525.405334,92.796684 525.291809,92.275658 
z"/>
<path fill="#926FC4" opacity="1.000000" stroke="none" 
	d="
M522.924438,99.748528 
	C522.651428,99.899178 522.402771,99.712097 522.099854,99.242874 
	C522.291748,99.183823 522.592773,99.333855 522.924438,99.748528 
z"/>
<path fill="#926FC4" opacity="1.000000" stroke="none" 
	d="
M524.818420,101.746658 
	C524.493469,101.854103 524.296936,101.654976 524.072815,101.211487 
	C524.298157,101.171715 524.598694,101.329369 524.818420,101.746658 
z"/>
<path fill="#BB79DC" opacity="1.000000" stroke="none" 
	d="
M469.697815,102.740746 
	C469.403168,102.873291 469.227570,102.723724 469.032562,102.355194 
	C469.322693,102.075150 469.590576,102.182617 469.697815,102.740746 
z"/>
<path fill="#687BCC" opacity="1.000000" stroke="none" 
	d="
M603.756836,103.328659 
	C603.879089,103.602303 603.718689,103.784737 603.325500,103.981445 
	C603.106079,103.708763 603.233276,103.456001 603.756836,103.328659 
z"/>
<path fill="#8373C7" opacity="1.000000" stroke="none" 
	d="
M556.671509,152.821777 
	C556.405029,152.932938 556.222900,152.763550 556.026855,152.361099 
	C556.307861,152.142746 556.555542,152.280472 556.671509,152.821777 
z"/>
<path fill="#8373C7" opacity="1.000000" stroke="none" 
	d="
M555.761353,150.743378 
	C555.458313,150.818329 555.276367,150.603424 555.085205,150.139877 
	C555.291382,150.123825 555.560181,150.311249 555.761353,150.743378 
z"/>
<path fill="#926FC4" opacity="1.000000" stroke="none" 
	d="
M532.857544,146.261139 
	C532.999512,146.481033 532.876465,146.663132 532.553101,146.887482 
	C532.236084,146.645523 532.316040,146.410049 532.857544,146.261139 
z"/>
<path fill="#926FC4" opacity="1.000000" stroke="none" 
	d="
M533.816772,145.198456 
	C533.969055,145.402802 533.834778,145.638931 533.456421,145.948334 
	C533.210571,145.726776 533.316467,145.462967 533.816772,145.198456 
z"/>
<path fill="#926FC4" opacity="1.000000" stroke="none" 
	d="
M512.255371,141.850632 
	C512.157532,141.535370 512.364685,141.334259 512.808716,141.086151 
	C512.847229,141.309982 512.685486,141.618530 512.255371,141.850632 
z"/>
<path fill="#967CD8" opacity="1.000000" stroke="none" 
	d="
M538.810730,131.164032 
	C538.957703,131.384460 538.821533,131.584335 538.489624,131.857910 
	C538.118164,131.611588 538.196045,131.348877 538.810730,131.164032 
z"/>
<path fill="#967CD8" opacity="1.000000" stroke="none" 
	d="
M537.765320,134.085358 
	C537.920532,134.266327 537.805420,134.485184 537.497009,134.798676 
	C537.133972,134.593094 537.197754,134.336411 537.765320,134.085358 
z"/>
<path fill="#926FC4" opacity="1.000000" stroke="none" 
	d="
M516.219116,138.623520 
	C516.054382,138.358063 516.172852,138.180420 516.511841,137.983795 
	C516.817078,138.237778 516.740417,138.486633 516.219116,138.623520 
z"/>
<path fill="#926FC4" opacity="1.000000" stroke="none" 
	d="
M517.085815,137.508301 
	C516.943787,137.290512 517.050110,137.128647 517.363831,136.959412 
	C517.605530,137.181473 517.526428,137.385529 517.085815,137.508301 
z"/>
<path fill="#926FC4" opacity="1.000000" stroke="none" 
	d="
M519.069702,135.588715 
	C518.897644,135.382050 518.971619,135.233749 519.243225,135.081238 
	C519.364136,135.038773 519.473694,135.361557 519.473694,135.361557 
	C519.473694,135.361557 519.239075,135.608841 519.069702,135.588715 
z"/>
<path fill="#926FC4" opacity="1.000000" stroke="none" 
	d="
M518.154541,136.701691 
	C517.999817,136.434708 518.144226,136.236954 518.520874,136.005371 
	C518.835449,136.283157 518.735718,136.549591 518.154541,136.701691 
z"/>
<path fill="none" opacity="1.000000" stroke="none" 
	d="
M734.020752,99.380798 
	C734.069702,86.324341 733.895813,73.691971 734.139709,61.076801 
	C734.973938,61.108498 735.808105,61.140194 736.642273,61.171890 
	C740.071411,74.687065 737.864014,88.012138 734.184570,101.292725 
	C734.130737,100.799873 734.076965,100.307022 734.020752,99.380798 
z"/>
<path fill="none" opacity="1.000000" stroke="none" 
	d="
M511.640381,108.932098 
	C515.449341,118.461418 511.160645,128.678619 501.140137,134.045898 
	C500.785950,132.634094 500.801483,131.211441 501.177917,129.219452 
	C501.558929,127.096581 501.579071,125.543022 501.599213,123.989471 
	C501.669281,123.536621 501.739380,123.083763 502.184631,122.176971 
	C503.241882,119.146042 503.923889,116.569046 504.605896,113.992050 
	C504.680908,113.801346 504.755859,113.610641 505.207458,113.062714 
	C506.705139,111.422333 507.826202,110.139191 508.947235,108.856041 
	C509.718018,108.860916 510.488831,108.865791 511.640381,108.932098 
z"/>
<path fill="#AD7ADA" opacity="1.000000" stroke="none" 
	d="
M504.300049,114.106232 
	C503.923889,116.569046 503.241882,119.146042 502.193665,121.831360 
	C502.549774,119.366600 503.272003,116.793518 504.300049,114.106232 
z"/>
<path fill="#AD7ADA" opacity="1.000000" stroke="none" 
	d="
M508.711243,108.680832 
	C507.826202,110.139191 506.705139,111.422333 505.263916,112.760590 
	C506.120911,111.379013 507.298096,109.942322 508.711243,108.680832 
z"/>
<path fill="#AD7ADA" opacity="1.000000" stroke="none" 
	d="
M501.306335,124.118622 
	C501.579071,125.543022 501.558929,127.096581 501.174133,128.792557 
	C500.877472,127.372574 500.945465,125.810173 501.306335,124.118622 
z"/>
<path fill="#506FB6" opacity="1.000000" stroke="none" 
	d="
M608.900024,156.754028 
	C608.465637,157.039246 608.013367,157.023880 607.219849,156.984100 
	C607.113647,156.416763 607.348572,155.873825 607.800659,155.124023 
	C608.305908,155.429214 608.594055,155.941315 608.900024,156.754028 
z"/>
<path fill="none" opacity="1.000000" stroke="none" 
	d="
M631.218994,166.929398 
	C631.223999,167.690216 631.229004,168.451019 631.209595,169.973541 
	C631.503723,172.142487 631.822266,173.549698 632.140869,174.956909 
	C632.168396,175.409729 632.195984,175.862534 632.298828,176.647217 
	C631.292542,188.075287 630.451599,199.204483 628.938171,210.241470 
	C628.612488,212.616211 628.849304,217.389679 623.289429,216.151581 
	C622.910828,215.552795 622.861450,215.103531 622.810181,214.079529 
	C622.644409,213.179779 622.381714,212.996689 622.020081,212.955536 
	C621.960815,203.276077 621.901550,193.596619 621.756226,183.454865 
	C621.726929,174.968109 621.783630,166.943634 621.754761,158.456909 
	C621.451599,152.309433 621.233948,146.624191 621.367981,140.438782 
	C622.150208,139.912079 622.580750,139.885544 623.011292,139.859009 
	C623.068176,140.047729 623.125122,140.236465 623.175293,141.066040 
	C625.532166,148.447556 627.895935,155.188217 630.259644,161.928894 
	C630.245972,162.385544 630.232239,162.842178 630.192200,163.970032 
	C630.516907,165.403961 630.867981,166.166672 631.218994,166.929398 
z"/>
<path fill="#3E79BF" opacity="1.000000" stroke="none" 
	d="
M630.451050,161.644760 
	C627.895935,155.188217 625.532166,148.447556 623.273560,141.344940 
	C624.438599,142.501114 625.498535,144.019211 626.777649,145.780548 
	C628.212097,151.136078 629.427307,156.248352 630.451050,161.644760 
z"/>
<path fill="#3E79BF" opacity="1.000000" stroke="none" 
	d="
M622.964233,139.585693 
	C622.580750,139.885544 622.150208,139.912079 621.400574,139.988342 
	C621.356689,139.540527 621.631897,139.042999 621.907104,138.545471 
	C622.243774,138.801102 622.580444,139.056747 622.964233,139.585693 
z"/>
<path fill="#3E79BF" opacity="1.000000" stroke="none" 
	d="
M632.363098,174.692154 
	C631.822266,173.549698 631.503723,172.142487 631.281738,170.347153 
	C631.831787,170.171036 632.285278,170.383026 632.897339,170.797379 
	C632.899109,172.142288 632.742188,173.284851 632.363098,174.692154 
z"/>
<path fill="#3E79BF" opacity="1.000000" stroke="none" 
	d="
M622.080872,213.156860 
	C622.381714,212.996689 622.644409,213.179779 622.748352,213.746155 
	C622.450562,213.826080 622.268311,213.616302 622.080872,213.156860 
z"/>
<path fill="#3E79BF" opacity="1.000000" stroke="none" 
	d="
M631.406372,166.717896 
	C630.867981,166.166672 630.516907,165.403961 630.262329,164.305939 
	C630.770386,164.815887 631.182068,165.661148 631.406372,166.717896 
z"/>
</svg>