<?xml version="1.0" standalone="no"?>
<!DOCTYPE svg PUBLIC "-//W3C//DTD SVG 20010904//EN"
 "http://www.w3.org/TR/2001/REC-SVG-20010904/DTD/svg10.dtd">
<svg version="1.0" xmlns="http://www.w3.org/2000/svg"
 width="1080.000000pt" height="1080.000000pt" viewBox="0 0 1080.000000 1080.000000"
 preserveAspectRatio="xMidYMid meet">
<metadata>
Created by potrace 1.16, written by Peter Selinger 2001-2019
</metadata>
<g transform="translate(0.000000,1080.000000) scale(0.100000,-0.100000)"
fill="#000000" stroke="none">
<path d="M0 5400 l0 -5400 5400 0 5400 0 0 5400 0 5400 -5400 0 -5400 0 0
-5400z m5499 685 c16 -8 31 -22 35 -30 3 -9 6 -87 6 -172 l0 -156 167 7 c92 3
172 11 178 16 17 14 18 -53 1 -95 l-15 -35 -166 0 -166 0 1 -282 c1 -162 5
-289 11 -300 6 -11 21 -18 40 -18 17 0 28 4 24 10 -3 5 0 7 9 4 15 -6 40 28
29 40 -3 3 -1 6 6 6 8 0 11 6 7 16 -4 10 -2 13 6 8 7 -5 9 0 6 14 -4 12 -2 20
2 17 12 -7 24 60 14 77 -4 7 -4 10 0 7 4 -4 18 3 32 16 23 22 24 27 24 164 0
91 -4 140 -10 136 -11 -7 -2 23 13 43 17 21 75 14 102 -13 l25 -24 0 -241 c0
-248 5 -280 40 -280 48 0 78 38 103 130 8 30 18 64 23 74 5 15 4 17 -6 11 -8
-5 -11 -4 -6 3 4 6 13 9 21 5 13 -4 15 10 15 85 0 63 -4 93 -13 101 -8 6 -17
7 -21 3 -4 -4 -6 0 -4 8 2 8 -2 14 -8 13 -6 -1 -10 13 -9 33 1 34 16 54 43 54
11 0 13 54 10 275 -3 260 -2 276 15 281 30 9 83 -5 103 -27 18 -20 19 -38 16
-270 l-3 -250 104 7 c163 11 186 -3 166 -96 -10 -46 -13 -50 -32 -43 -12 4
-56 8 -99 8 -42 0 -74 3 -71 8 2 4 -12 7 -31 7 -29 0 -36 -4 -36 -20 0 -11 5
-20 10 -20 6 0 10 -6 10 -13 0 -7 12 -26 28 -43 15 -17 33 -42 41 -57 8 -15
18 -27 23 -27 5 0 7 -4 4 -8 -3 -5 2 -18 12 -28 9 -11 18 -26 20 -34 2 -8 8
-18 14 -21 5 -3 9 -9 9 -13 -3 -21 1 -36 12 -48 6 -7 12 -17 12 -23 1 -23 29
-125 34 -125 3 0 7 -29 9 -63 2 -35 6 -76 10 -91 4 -16 4 -69 0 -120 -17 -194
-61 -322 -133 -384 -30 -27 -44 -32 -85 -32 -41 0 -55 5 -85 31 -59 52 -65 90
-65 425 l0 293 -49 -49 c-55 -55 -109 -75 -169 -64 -20 4 -38 5 -39 3 -4 -8
-54 66 -60 89 -3 12 -7 22 -9 22 -2 0 -22 -20 -45 -44 -92 -101 -229 -99 -281
3 -22 44 -22 44 -44 19 l-19 -23 25 20 25 20 -19 -23 c-11 -12 -22 -20 -24
-17 -3 3 -18 -6 -33 -21 -15 -14 -29 -25 -31 -24 -1 1 -16 -4 -33 -12 -17 -7
-68 -13 -120 -13 -81 0 -95 3 -144 30 -30 16 -66 44 -80 62 -14 18 -31 33 -36
33 -10 0 -42 -44 -34 -46 8 -2 -26 -36 -46 -45 -11 -6 -31 -16 -45 -24 -60
-35 -168 -7 -199 51 l-16 30 -24 -29 c-39 -47 -80 -67 -139 -67 -63 0 -102 18
-137 64 l-27 35 -29 -33 c-78 -89 -217 -89 -276 1 -16 23 -19 58 -23 264 -3
131 -9 241 -13 245 -14 14 -40 -10 -84 -75 -62 -91 -73 -138 -73 -313 0 -84
-5 -158 -10 -169 -15 -26 -89 -26 -121 0 -27 21 -24 -41 -31 829 l-3 312 58 0
c48 0 62 -4 82 -25 l25 -24 0 -256 0 -255 38 41 c61 69 140 88 212 51 63 -31
70 -59 71 -297 1 -225 5 -258 32 -263 36 -7 64 38 93 147 8 30 19 60 24 66 5
6 19 59 30 117 11 57 27 128 35 156 18 58 31 66 106 60 40 -3 44 -6 47 -31 2
-16 -1 -34 -7 -41 -23 -27 -54 -202 -55 -311 -1 -126 14 -165 63 -165 46 0 92
69 121 181 10 41 10 269 -2 349 -3 24 0 25 48 28 39 2 56 -2 77 -18 l27 -21 0
-237 c0 -130 3 -247 6 -259 14 -51 72 -18 107 59 10 20 17 42 17 50 0 8 6 34
14 59 7 24 19 73 26 108 28 155 140 281 248 281 52 0 143 -42 127 -58 -3 -3 2
-14 12 -24 9 -10 13 -18 9 -18 -4 0 -4 -5 0 -12 8 -13 10 -109 3 -124 -3 -5
-5 -16 -4 -24 0 -8 -5 -21 -12 -28 -7 -8 -11 -17 -8 -22 3 -5 1 -10 -4 -12 -5
-1 -11 -9 -13 -17 -10 -45 -140 -151 -185 -151 -13 0 -8 -10 18 -37 18 -21 25
-31 14 -23 -13 10 -12 7 3 -8 14 -13 31 -21 38 -18 8 3 14 1 14 -4 0 -13 97
-13 105 0 4 6 10 8 15 5 5 -3 22 7 38 22 45 43 74 102 89 177 2 11 10 27 18
37 13 13 15 46 13 180 l-3 164 -62 0 c-76 0 -96 15 -97 77 l-1 43 83 0 84 0
-4 178 c-2 112 1 179 7 181 22 9 68 5 94 -9z m1922 -11 c65 -33 93 -178 69
-349 -7 -49 -13 -99 -14 -110 0 -11 -3 -22 -6 -25 -3 -3 -18 -45 -34 -95 -16
-49 -46 -130 -67 -180 -34 -79 -39 -100 -39 -168 0 -73 2 -80 29 -108 40 -39
79 -39 126 3 40 34 67 81 84 144 7 27 19 44 36 52 13 6 26 8 28 4 13 -23 7
-134 -9 -164 -28 -56 -83 -117 -130 -144 -38 -23 -53 -26 -108 -22 -76 5 -128
38 -156 100 l-17 38 -26 -39 c-41 -62 -90 -94 -152 -99 -67 -5 -118 22 -137
74 -6 18 -14 34 -18 34 -3 0 -16 -16 -29 -35 -39 -58 -82 -78 -153 -73 -57 4
-64 7 -99 46 -43 49 -59 103 -59 200 0 81 31 272 57 352 15 46 23 56 50 63 17
5 44 6 58 3 24 -6 26 -10 21 -39 -4 -18 -8 -39 -9 -47 -2 -9 -6 -20 -9 -25
-27 -46 -62 -365 -40 -365 5 0 8 -9 5 -19 -7 -27 38 -71 73 -71 35 0 77 47
106 118 21 53 23 71 23 255 l0 197 43 0 c29 0 48 -6 62 -20 19 -19 20 -33 20
-266 0 -140 4 -243 9 -240 5 3 8 -1 7 -10 -2 -26 28 -40 58 -26 34 15 56 51
77 130 11 37 28 74 39 84 19 16 20 28 20 370 0 321 2 357 19 393 38 85 118
118 192 79z m-1519 -134 c34 -26 52 -78 39 -113 -5 -14 -8 -27 -5 -29 2 -3
-14 -15 -37 -27 -40 -23 -70 -24 -113 -6 -15 7 -17 5 -11 -6 5 -8 0 -6 -12 4
-14 12 -19 25 -15 39 3 12 1 19 -4 15 -5 -3 -9 14 -9 36 0 60 39 102 98 105
31 2 51 -3 69 -18z"/>
<path d="M5085 5480 c-3 -6 -12 -7 -18 -4 -7 4 -9 3 -4 -1 4 -5 -5 -22 -20
-38 -16 -17 -21 -26 -13 -22 12 7 13 6 3 -6 -15 -18 -23 -56 -29 -134 -3 -43
-2 -56 5 -45 6 8 11 11 11 6 0 -19 53 41 76 86 28 54 33 138 10 157 -10 8 -16
9 -21 1z"/>
<path d="M6201 4837 c-1 -317 2 -394 13 -422 20 -46 40 -45 66 4 21 41 30 82
40 194 18 188 -15 391 -89 549 l-29 63 -1 -388z"/>
<path d="M7337 5976 c-3 -8 -6 -131 -6 -273 l1 -258 18 55 c46 141 65 385 36
455 -15 36 -40 46 -49 21z"/>
</g>
</svg>
